<svg width="546" height="736" viewBox="0 0 546 736" fill="none" xmlns="http://www.w3.org/2000/svg">
<path fill-rule="evenodd" clip-rule="evenodd" d="M410.489 11.3272C410.489 5.32854 415.643 0.465942 422.001 0.465942H422.002C428.36 0.465942 433.515 5.32844 433.515 11.3272V107.066C465.255 112.03 490.397 137.182 495.357 168.936H682.376C688.734 168.936 693.889 174.092 693.889 180.452C693.889 186.813 688.734 191.969 682.376 191.969H495.355C490.392 223.718 465.252 248.865 433.515 253.828V300.786H410.489V253.828C378.752 248.865 353.612 223.718 348.648 191.969H162.539C156.181 191.969 151.026 186.813 151.026 180.452C151.026 174.092 156.181 168.936 162.539 168.936H348.646C353.606 137.182 378.748 112.03 410.489 107.066V11.3272ZM410.489 127.839C390.029 132.316 373.882 148.467 369.407 168.936H410.489V127.839ZM410.489 191.969H369.407C373.882 212.438 390.028 228.59 410.489 233.066V191.969ZM433.515 233.066V191.969H474.596C470.121 212.438 453.975 228.589 433.515 233.066ZM433.515 168.936V127.839C453.976 132.316 470.121 148.467 474.596 168.936H433.515ZM391.383 692.642V300.787H455.617V692.642H391.383ZM422.002 524.922C425.76 524.922 428.806 521.875 428.806 518.116V310.69C428.806 306.93 425.76 303.883 422.002 303.883C418.245 303.883 415.198 306.93 415.198 310.69V518.116C415.198 521.874 418.245 524.922 422.002 524.922ZM472.807 735.505H370.72C362.077 735.505 355.07 728.496 355.07 719.85C355.07 711.204 362.077 704.194 370.72 704.194H472.807C481.45 704.194 488.457 711.204 488.457 719.85C488.457 728.496 481.45 735.505 472.807 735.505ZM28.6035 521.826L167.97 219.585L307.331 521.826H280.739L167.97 280.034L55.1948 521.826H28.6035ZM322.317 561.651H14.0677C6.55193 561.651 0.458984 555.556 0.458984 548.037C0.458984 540.518 6.55142 534.424 14.0677 534.424H322.317C329.833 534.424 335.926 540.518 335.926 548.037C335.926 555.556 329.833 561.651 322.317 561.651ZM167.673 673.688C103.495 673.688 49.437 630.383 33.0867 571.389H302.258C285.909 630.38 231.85 673.688 167.673 673.688ZM676.023 219.585L815.384 521.826H788.792L676.023 280.034L563.253 521.826H536.662L676.023 219.585ZM521.685 561.651H829.935C837.45 561.651 843.543 555.556 843.543 548.037C843.543 540.518 837.45 534.424 829.935 534.424H521.685C514.169 534.424 508.077 540.518 508.077 548.037C508.077 555.556 514.17 561.651 521.685 561.651ZM810.926 571.389C794.576 630.383 740.518 673.688 676.34 673.688C612.162 673.688 558.104 630.38 541.754 571.389H810.926Z" fill="#BCC5C9" fill-opacity="0.18"/>
</svg>
